<svg xmlns="http://www.w3.org/2000/svg" width="50" height="50" viewBox="0 0 50 50"><defs><style>.a{fill:#f08700;}.b{fill:#0069a3;}</style></defs><path class="a" d="M172.989,179.2v13.786h-2.462a6.893,6.893,0,1,1,0-13.786Z" transform="translate(-163.6 -156.771)"/><path class="a" d="M323.088,186.093a6.909,6.909,0,0,1-6.926,6.893H313.7V179.2h2.462a6.911,6.911,0,0,1,6.926,6.893Z" transform="translate(-273.089 -156.771)"/><path class="b" d="M229.523,111.436v24.655a8.549,8.549,0,0,1-8.374,8.7h-1.326a3.375,3.375,0,0,0,.644-3.5h.682a5.041,5.041,0,0,0,4.857-5.2V111.436a12.094,12.094,0,0,0-24.188,0v20.679H198.3V111.436a15.612,15.612,0,0,1,31.223,0Z" transform="translate(-188.911 -95.9)"/><path class="a" d="M262.789,259.886a3.356,3.356,0,1,1-.233-1.233A3.356,3.356,0,0,1,262.789,259.886Z" transform="translate(-231 -213.265)"/></svg>