<svg xmlns="http://www.w3.org/2000/svg" width="23.887" height="24" viewBox="0 0 23.887 24"><defs><style>.a{fill:#25d366;fill-rule:evenodd;}</style></defs><path class="a" d="M20.657,3.488a11.9,11.9,0,0,0-18.72,14.35L.25,24l6.305-1.654a11.882,11.882,0,0,0,5.684,1.448h0A11.9,11.9,0,0,0,20.657,3.488Zm-8.413,18.3h0a9.874,9.874,0,0,1-5.031-1.378l-.361-.214-3.742.981,1-3.648-.235-.374a9.886,9.886,0,1,1,8.374,4.632Zm5.423-7.4c-.3-.149-1.758-.867-2.031-.967s-.471-.149-.668.149-.768.967-.941,1.165-.347.223-.644.074a8.117,8.117,0,0,1-2.39-1.475A8.964,8.964,0,0,1,9.339,11.27c-.173-.3,0-.443.13-.606a8.406,8.406,0,0,0,.743-1.016.547.547,0,0,0-.025-.521c-.074-.149-.668-1.611-.916-2.206-.241-.579-.486-.5-.669-.51s-.371-.01-.57-.01a1.092,1.092,0,0,0-.793.372A3.333,3.333,0,0,0,6.2,9.251a5.78,5.78,0,0,0,1.213,3.074,13.246,13.246,0,0,0,5.077,4.487,17.011,17.011,0,0,0,1.694.626,4.074,4.074,0,0,0,1.872.118,3.062,3.062,0,0,0,2.006-1.413,2.483,2.483,0,0,0,.173-1.413c-.074-.124-.272-.2-.569-.347Zm0,0" transform="translate(-0.25)"/></svg>